<?xml version="1.0" encoding="utf-8"?>
<!-- Generator: Adobe Illustrator 24.0.1, SVG Export Plug-In . SVG Version: 6.00 Build 0)  -->
<svg version="1.1" id="Layer_1" xmlns="http://www.w3.org/2000/svg" xmlns:xlink="http://www.w3.org/1999/xlink" x="0px" y="0px"
	 viewBox="0 0 503.2 503.2" style="enable-background:new 0 0 503.2 503.2;" xml:space="preserve">
<style type="text/css">
	.st0{fill:#FCC309;}
	.st1{fill:#FD9808;}
	.st2{fill:#FFFFFF;}
	.st3{fill:#FFDD09;}
</style>
<g transform="translate(1 1)">
	<polygon class="st0" points="41,292.6 66.1,292.6 66.1,208.6 41,208.6 41,200.2 7.4,200.2 7.4,301 41,301 	"/>
	<polygon class="st1" points="41,317.7 66.1,317.7 66.1,292.6 41,292.6 41,301 7.4,301 7.4,326.1 41,326.1 	"/>
	<polygon class="st2" points="41,208.6 66.1,208.6 66.1,183.4 41,183.4 41,175.1 7.4,175.1 7.4,200.2 41,200.2 	"/>
	<polygon class="st3" points="66.1,200.2 66.1,301 318,301 318,200.2 	"/>
	<polygon class="st2" points="66.1,175.1 66.1,200.2 318,200.2 318,175.1 	"/>
	<polygon class="st1" points="66.1,301 66.1,326.1 318,326.1 318,301 	"/>
	<path class="st0" d="M318,292.6v-83.9h42c52.9,0,102.4,15.9,134.3,42l0,0l0,0c-31.9,26-81.4,42-134.3,42H318z"/>
	<path class="st2" d="M359.9,183.4h-42v25.2h42c52.9,0,102.4,15.9,134.3,42C462.3,208.6,412.8,183.4,359.9,183.4"/>
	<path class="st1" d="M494.2,250.6c-31.9,26-81.4,42-134.3,42h-42v25.2h42C412.8,317.7,462.3,292.6,494.2,250.6"/>
	<path d="M57.8,326.1V175.1c0-5,3.4-8.4,8.4-8.4H318c5,0,8.4,3.4,8.4,8.4v151.1c0,5-3.4,8.4-8.4,8.4H66.1
		C61.1,334.5,57.8,331.2,57.8,326.1z M74.5,183.4v134.3h235V183.4H74.5z"/>
	<path d="M32.6,317.7V183.4c0-5,3.4-8.4,8.4-8.4h25.2c5,0,8.4,3.4,8.4,8.4v134.3c0,5-3.4,8.4-8.4,8.4H41
		C35.9,326.1,32.6,322.8,32.6,317.7z M49.4,191.8v117.5h8.4V191.8H49.4z"/>
	<path d="M-1,326.1V175.1c0-5,3.4-8.4,8.4-8.4H41c5,0,8.4,3.4,8.4,8.4v151.1c0,5-3.4,8.4-8.4,8.4H7.4C2.4,334.5-1,331.2-1,326.1z
		 M15.8,183.4v134.3h16.8V183.4H15.8z"/>
	<path d="M309.6,317.7V183.4c0-5,3.4-8.4,8.4-8.4h42c54.6,0,107.4,26,141,70.5c1.7,3.4,1.7,6.7,0,10.1
		c-33.6,44.5-86.5,70.5-141,70.5h-42C312.9,326.1,309.6,322.8,309.6,317.7z M326.3,191.8v117.5h33.6c47.8,0,93.2-21.8,123.4-58.8
		c-30.2-36.9-75.5-58.8-123.4-58.8L326.3,191.8L326.3,191.8z"/>
</g>
</svg>
