<svg id="Layer_1" data-name="Layer 1" xmlns="http://www.w3.org/2000/svg" viewBox="0 0 512 512"><defs><style>.cls-1{fill:#f4607f;}.cls-2{fill:#141f38;}.cls-3{fill:#d9e4e8;}.cls-4{fill:#79d3d3;}.cls-5{opacity:0.14;}.cls-6{fill:#17292d;}</style></defs><title>space_probe_style_3</title><line class="cls-1" x1="473.51" y1="38.52" x2="435.02" y2="77.05"/><path class="cls-2" d="M482.58,47.6a12.83,12.83,0,0,1-18.28-18l.14-.14Z"/><path class="cls-3" d="M126.64,178.87A19.11,19.11,0,0,1,113,173.23L18.46,78.58a19.3,19.3,0,0,1,0-27.24L50.09,19.69a19.23,19.23,0,0,1,27.21,0l94.57,94.65a19.28,19.28,0,0,1,0,27.24l-31.62,31.65A19.11,19.11,0,0,1,126.64,178.87Z"/><path class="cls-3" d="M216.71,397.17a51,51,0,0,1-36.29-15l-50.2-50.25a51.46,51.46,0,0,1,0-72.65L258.4,130.93a51.3,51.3,0,0,1,72.58,0l50.21,50.25a51.46,51.46,0,0,1,0,72.65L253,382.13A51,51,0,0,1,216.71,397.17Z"/><path class="cls-2" d="M372.12,190.26,321.91,140l50.2,50.25a39.09,39.09,0,0,1,3.83,4.46A38,38,0,0,0,372.12,190.26Zm5.93,7.66c.48.82.93,1.66,1.35,2.5C379,199.58,378.54,198.74,378,197.92ZM237.66,378.13l-.2.14.21-.13Z"/><path class="cls-3" d="M421.66,167.49a80.91,80.91,0,0,1-9.43-.56c-34.73-4.1-62.9-32.3-67-67.06a77,77,0,0,1,14.62-55.27,18.24,18.24,0,0,1,14.81-7.3A19.44,19.44,0,0,1,388.51,43L469,123.6a19.6,19.6,0,0,1,5.68,15.28,18.07,18.07,0,0,1-7.24,13.41,76,76,0,0,1-45.79,15.2Z"/><rect class="cls-4" x="53.68" y="64.44" width="83.24" height="63.77" transform="translate(-40.2 95.66) rotate(-45.03)"/><path class="cls-1" d="M473.51,64.21a25.68,25.68,0,1,1,25.66-25.68A25.7,25.7,0,0,1,473.51,64.21Z"/><g class="cls-5"><path class="cls-6" d="M384.4,166.24,165.49,385.34l5.86,5.86a64.11,64.11,0,0,0,90.72,0L390.26,262.9a64.25,64.25,0,0,0,0-90.8Z"/></g><g class="cls-5"><path class="cls-6" d="M475.13,162.58l-1.41,1q-1.42,1-2.88,2c-.49.33-1,.64-1.47,1q-2.22,1.41-4.53,2.68c-1,.56-2.06,1.11-3.11,1.64-1.57.79-3.17,1.54-4.8,2.23s-3.27,1.35-4.94,2c-.55.2-1.11.4-1.68.59q-2.52.85-5.12,1.56t-5.25,1.26c-1,.2-2,.39-3,.56l-1.18.19c-1,.16-2,.3-3.06.43l-1.06.12c-.73.08-1.47.16-2.21.22l-1,.09c-1,.08-2.07.14-3.12.18l-.56,0-1.36,0h-2.32c-.73,0-1.47,0-2.22,0l-1,0-1.39-.06-1.71-.11c-1.37-.1-2.75-.23-4.13-.39-.75-.09-1.49-.19-2.23-.3s-1.21-.17-1.81-.28-.94-.15-1.41-.24l-.31-.06-1.19-.23c-.53-.1-1.06-.22-1.59-.34l-.13,0c-.55-.11-1.09-.24-1.63-.37l-.56-.14-1-.24-1.21-.33c-1.31-.36-2.61-.76-3.9-1.17a90.72,90.72,0,0,1-57.58-57.64c-.22-.68-.44-1.37-.65-2.05a.14.14,0,0,0,0-.06c-.19-.67-.39-1.34-.57-2-.42-1.51-.79-3-1.12-4.57-.09-.39-.17-.77-.24-1.16s-.19-.95-.28-1.43-.2-1.08-.29-1.62-.16-1-.23-1.54c-.13-.83-.24-1.66-.34-2.5s-.19-1.73-.26-2.59A94.75,94.75,0,0,1,332,86a91.11,91.11,0,0,0,31.41,31.57,87.81,87.81,0,0,0,35,12,89.2,89.2,0,0,0,64.41-17.09,30.15,30.15,0,0,0,6.42-6.76l8.82,8.83C491.73,128.17,490.59,151,475.13,162.58Z"/></g><path class="cls-3" d="M446.65,499.16A19.11,19.11,0,0,1,433,493.52l-94.57-94.66a19.28,19.28,0,0,1,0-27.24L370.09,340a19.25,19.25,0,0,1,27.22,0l94.57,94.66a19.28,19.28,0,0,1,0,27.24l-31.62,31.65A19.1,19.1,0,0,1,446.65,499.16Z"/><rect class="cls-4" x="373.68" y="384.73" width="83.24" height="63.77" transform="translate(-172.95 415.97) rotate(-45.03)"/><path class="cls-2" d="M485.27,409.85,422,346.59,406.38,330.9a32,32,0,0,0-45.36,0l-6.74,6.74-19.35-19.36L377.18,276l13.08-13.09c.39-.39.78-.79,1.16-1.19.75-.79,1.48-1.6,2.2-2.43s1.4-1.68,2-2.53,1.29-1.71,1.91-2.59q1.38-2,2.59-4c.53-.91,1-1.83,1.54-2.76s.95-1.87,1.39-2.82.86-1.9,1.25-2.87a64,64,0,0,0,2.48-7.38c.27-1,.51-2,.73-3h0c.22-1,.42-2,.59-3a64.75,64.75,0,0,0,.9-10.76c0-.51,0-1,0-1.53s0-.81,0-1.22c0-.25,0-.5,0-.74s0-.75-.07-1.12,0-.67-.08-1-.06-.67-.09-1c-.06-.56-.13-1.12-.2-1.68s-.12-.88-.18-1.32l-.18-1.14-.24-1.31c-.11-.57-.23-1.14-.35-1.71s-.22-1-.35-1.5c-.21-.85-.43-1.71-.68-2.56-.12-.44-.26-.89-.4-1.34s-.23-.73-.35-1.1l-.38-1.1-.42-1.17-.75-1.91c-.35-.83-.71-1.66-1.09-2.48s-.84-1.78-1.3-2.65c-.2-.39-.41-.78-.62-1.17s-.49-.89-.75-1.33-.48-.82-.73-1.23-.5-.82-.76-1.22-.52-.81-.79-1.21a65,65,0,0,0-4.39-5.8c1.29.41,2.59.81,3.9,1.17l1.21.33,1,.24.56.14c.54.13,1.08.26,1.63.37l.13,0c.53.12,1.06.24,1.59.34l1.19.23.31.06q.7.13,1.41.24c.6.11,1.2.2,1.81.28s1.48.21,2.23.3c1.38.16,2.76.29,4.13.39l1.71.11,1.39.06,1,0c.75,0,1.49,0,2.22,0h.53l1.79,0,1.36,0,.56,0q1.56-.06,3.12-.18c1.43-.11,2.86-.25,4.27-.43,1-.13,2-.27,3.06-.43L437,179c1-.17,2-.36,3-.56q2.66-.55,5.25-1.26t5.12-1.56c.57-.19,1.13-.39,1.68-.59q2.5-.9,4.94-2t4.8-2.23c1.05-.53,2.09-1.08,3.11-1.64q2.31-1.27,4.53-2.68c.49-.31,1-.62,1.47-1q1.45-1,2.88-2l1.41-1c15.46-11.54,16.6-34.41,3-48.06l-8.82-8.83L446.9,83.31l10-10a38.55,38.55,0,1,0-18.13-18.16l-10,10L397.58,33.94a32.36,32.36,0,0,0-22.92-9.49,31.05,31.05,0,0,0-25.1,12.46,89.45,89.45,0,0,0-17.34,61.86c.07.86.16,1.72.26,2.59s.21,1.67.34,2.5c.07.52.15,1,.23,1.54s.19,1.08.29,1.62.18,1,.28,1.43.15.77.24,1.16c.33,1.54.7,3.06,1.12,4.57.18.68.38,1.35.57,2a.14.14,0,0,1,0,.06c.21.68.43,1.37.65,2.05-1.49-1.27-3-2.47-4.61-3.58-.36-.26-.73-.51-1.11-.77-.88-.59-1.78-1.17-2.7-1.72q-.51-.31-1-.6s0,0,0,0c-.41-.23-.82-.47-1.23-.69l-1.26-.67a61.33,61.33,0,0,0-6.47-2.92c-.43-.17-.85-.33-1.28-.48l-1.32-.46L314,106c-.61-.2-1.23-.38-1.86-.55-.32-.1-.65-.19-1-.27l-1.22-.31-1.49-.35-1.53-.31-1.52-.28-1.2-.19c-.36-.06-.73-.11-1.1-.15s-.7-.1-1-.13-.53-.06-.79-.09l-.9-.09-1.08-.08-1.16-.08-.68,0-1.23,0-1.54,0a63.91,63.91,0,0,0-45.36,18.81l-13.08,13.09L194,177.22,174.2,157.4l6.74-6.74a32.12,32.12,0,0,0,0-45.4L165.26,89.57,102,26.3,86.37,10.61a32,32,0,0,0-45.36,0L9.39,42.25a32.15,32.15,0,0,0,0,45.41L104,182.31a32.06,32.06,0,0,0,45.36,0l6.74-6.75,19.8,19.82-42.25,42.29-12.47,12.48a64.26,64.26,0,0,0,0,90.81l50.21,50.25a64.1,64.1,0,0,0,90.72,0l12.47-12.49,42.25-42.28,19.35,19.36-6.74,6.74a32.13,32.13,0,0,0,0,45.41L424,502.6a32.06,32.06,0,0,0,45.36,0L501,470.95a32.13,32.13,0,0,0,0-45.4Zm-21-380.26.14-.14a12.6,12.6,0,1,1-.14.14ZM27.54,69.5a6.45,6.45,0,0,1,0-9.09L59.16,28.77a6.41,6.41,0,0,1,9.07,0L83.9,44.45,43.21,85.18Zm60.88,60.66L61.49,103.21,102,62.61l.13-.13,26.93,26.95-.14.14Zm74.38,2.34-31.62,31.65a6.41,6.41,0,0,1-9.07,0l-15.68-15.69,40.69-40.73,15.68,15.69A6.43,6.43,0,0,1,162.8,132.5ZM370.13,52.26a5.45,5.45,0,0,1,4.53-2.13,6.73,6.73,0,0,1,4.78,2l69,69.1,11.46,11.47a6.76,6.76,0,0,1,2,5.27,5.38,5.38,0,0,1-2.11,4.05,63.27,63.27,0,0,1-38.13,12.64,68.11,68.11,0,0,1-7.92-.47,64.38,64.38,0,0,1-50.29-36.64A63,63,0,0,1,358,98.35,64.16,64.16,0,0,1,370.13,52.26Zm-94.69,81.61c.32-.19.64-.37,1-.54a1.31,1.31,0,0,1,.16-.09l.55-.29a37.3,37.3,0,0,1,4.92-2.1c.38-.13.75-.26,1.13-.37.57-.19,1.15-.35,1.73-.5.38-.1.76-.2,1.15-.28l1.07-.23h.08l.83-.16h.06l.89-.14,1-.14c.27,0,.55-.07.83-.09l.91-.08c.34,0,.67,0,1-.06l.51,0q.7,0,1.41,0A38.21,38.21,0,0,1,321.91,140l50.21,50.25a38,38,0,0,1,3.82,4.46c.38.52.75,1,1.1,1.58s.69,1.07,1,1.62c.49.82.94,1.66,1.35,2.5a38.61,38.61,0,0,1,4,17.08c0,.47,0,.95,0,1.42s0,.76-.06,1.13a1.55,1.55,0,0,1,0,.22c0,.31-.05.62-.08.92s0,.49-.07.73-.09.73-.15,1.1a2.62,2.62,0,0,1-.06.39c0,.37-.11.74-.18,1.1a.29.29,0,0,1,0,.09c-.08.46-.17.92-.28,1.38s-.14.63-.22.94-.11.43-.16.64v0c-.11.39-.22.78-.34,1.17s-.28.92-.44,1.37-.24.67-.36,1c-.06.17-.13.33-.19.49s-.24.59-.37.89-.16.39-.24.58-.28.62-.43.93c-.35.75-.73,1.5-1.15,2.23-.14.27-.3.55-.47.82a0,0,0,0,1,0,0c-.31.53-.64,1-1,1.57-.11.18-.23.35-.35.53L273,135.4Q274.19,134.59,275.44,133.87Zm-38,244.4-.21.13c-.43.28-.86.54-1.3.78s-.82.48-1.24.7-1,.54-1.56.78c-.28.14-.57.27-.85.39A37.29,37.29,0,0,1,227,383l-.85.22c-.63.16-1.26.3-1.9.42l-.86.16c-.42.08-.85.14-1.28.2s-.73.1-1.09.13l-.45.05c-.33,0-.67.07-1,.09s-.93.06-1.4.07-.94,0-1.41,0a38.21,38.21,0,0,1-27.22-11.28L139.28,322.8A38.46,38.46,0,0,1,128.06,294c0-.4,0-.8.07-1.2s.07-.91.12-1.37.1-.9.17-1.35.15-1,.24-1.53.15-.78.24-1.18.23-1,.37-1.55.2-.76.31-1.13.26-.88.41-1.32.29-.87.45-1.3a.7.7,0,0,0,.06-.17c.14-.37.29-.74.44-1.11s.37-.87.57-1.3.32-.69.49-1l.11-.22c.21-.42.42-.83.65-1.24s.39-.7.59-1l.19-.32q.32-.52.66-1s0,0,0,0L237.66,378.13h0Zm18.94-17.71L151.75,255.83,254.39,153.1,359,257.83Zm91.14,29.23a6.45,6.45,0,0,1,0-9.09l31.62-31.64a6.42,6.42,0,0,1,9.08,0l15.67,15.69-40.69,40.73Zm60.88,60.66L381.5,423.5,422,382.91l.14-.14,26.93,26.95-.14.14Zm74.38,2.34-31.62,31.65a6.41,6.41,0,0,1-9.07,0l-15.68-15.69L467.12,428l15.68,15.69A6.43,6.43,0,0,1,482.8,452.79Z"/></svg>