<?xml version="1.0" encoding="utf-8"?>
<!-- Generator: Adobe Illustrator 24.0.1, SVG Export Plug-In . SVG Version: 6.00 Build 0)  -->
<svg version="1.1" id="Layer_1" xmlns="http://www.w3.org/2000/svg" xmlns:xlink="http://www.w3.org/1999/xlink" x="0px" y="0px"
	 viewBox="0 0 512 512" style="enable-background:new 0 0 512 512;" xml:space="preserve">
<style type="text/css">
	.st0{fill:#D9E4E8;}
	.st1{opacity:0.14;fill:#17292D;enable-background:new    ;}
	.st2{fill:#79D3D3;}
	.st3{fill:#141F38;}
</style>
<title>spaceship_style_3</title>
<path class="st0" d="M76.8,499.2c-7.1,0-12.8-5.7-12.8-12.8V305c0,6.4-3.2,12.4-8.5,16l-12.8,8.5c-8.8,5.9-20.7,3.5-26.6-5.3
	c-2.1-3.2-3.2-6.9-3.2-10.7V198.4c0-10.6,8.6-19.2,19.2-19.2c3.8,0,7.5,1.1,10.7,3.2l12.8,8.5c5.4,3.6,8.6,9.6,8.5,16V25.6
	c0-7.1,5.7-12.8,12.8-12.8c0.7,0,72.5,1,131.8,60.3c28,28,64.2,56.9,99.9,80.6h69c2.7,0,69.1,1.6,116.4,82.7
	c7.1,12.2,7.1,27.3,0,39.4c-47.7,81.7-115.7,82.7-116.4,82.7h-69c-35.7,23.7-71.9,52.6-99.9,80.6C149,498.5,77.5,499.2,76.8,499.2z"
	/>
<path class="st1" d="M504.9,282.2c9.4-16.2,9.4-36.2,0-52.3c-8.7-15.2-19.4-29.2-31.6-41.8c0.8,10.5-1.5,21-6.8,30.1
	c-52,89-127.4,89-127.4,89H51.2v64h326.3C377.5,371.2,452.9,371.2,504.9,282.2z"/>
<path class="st2" d="M384,206.9c0-1.1,0.9-2.1,2.1-2.1c1.3,0,35.2,1.2,59.7,43.1c2.9,5,2.9,11.2,0,16.2
	c-24.9,42.6-59.4,43.1-59.7,43.1c-1.1,0-2.1-0.9-2.1-2.1V206.9z"/>
<path class="st3" d="M386.1,320c0,0,41.9,0,70.8-49.4c5.2-9,5.2-20.1,0-29.1C428,192,386.1,192,386.1,192c-8.2,0-14.9,6.7-14.9,14.9
	l0,0v98.3C371.2,313.3,377.9,320,386.1,320z M396.8,220.2c10.1,3.7,25.4,12.6,38,34.2c0.6,1,0.6,2.3,0,3.3
	c-12.6,21.6-27.8,30.5-38,34.2V220.2z M217.6,448c27.3-27.3,61.5-54.5,94.8-76.8h65.1c0,0,75.5,0,127.4-89c9.4-16.2,9.4-36.2,0-52.3
	c-52-89-127.4-89-127.4-89h-65.1c-33.3-22.4-67.5-49.6-94.8-76.9C153.6,0,76.8,0,76.8,0C62.7,0,51.2,11.5,51.2,25.6c0,0,0,0,0,0
	v147.2l-1.5-1C28.5,157.6,0,172.9,0,198.4v115.1c0,25.6,28.5,40.8,49.8,26.6l1.5-1v147.2c0,14.1,11.5,25.6,25.6,25.6
	C76.8,512,153.6,512,217.6,448z M199.5,429.9c-20.2,20.2-44.6,35.7-71.5,45.5V371.2h140.1C243.1,389.8,219.3,410.1,199.5,429.9z
	 M377.5,166.4c0.6,0,61.3,0.9,105.3,76.3c4.8,8.2,4.8,18.3,0,26.5c-43.3,74.1-103.1,76.3-105.3,76.3H76.8V166.4H377.5z M199.5,82.1
	c19.8,19.8,43.6,40.1,68.6,58.7H128V36.4C154.9,46.2,179.3,61.8,199.5,82.1z M102.4,29v111.8H76.8V25.6C77.1,25.6,87,25.7,102.4,29z
	 M29,319.2c-2.1-1.1-3.5-3.3-3.4-5.6V198.4c0-3.5,2.9-6.4,6.4-6.4c1.3,0,2.5,0.4,3.5,1.1l12.8,8.5c1.8,1.2,2.8,3.2,2.8,5.3v98
	c0,2.1-1.1,4.1-2.9,5.3l-12.8,8.5C33.6,320.2,31.1,320.4,29,319.2z M76.8,371.2h25.6v111.6c-15.4,3.4-25.4,3.6-25.6,3.6L76.8,371.2z
	"/>
</svg>
